<svg viewBox="0 0 400 320" fill="none" xmlns="http://www.w3.org/2000/svg"><path d="M398.01 160.39c0 86.95-88.45 157.43-197.55 157.43-109.1 0-197.55-70.49-197.55-157.43C2.91 73.45 91.36 2.96 200.46 2.96c109.11 0 197.55 70.48 197.55 157.43z" fill="#000"/><path fill-rule="evenodd" clip-rule="evenodd" d="M392 160.005c0-9.635-1.131-19.23-3.384-28.597a128.8 128.8 0 00-11.263-29.825c-4.952-9.426-11.065-18.358-17.982-26.497-7.512-8.833-16.235-17.061-25.513-24.18a190.892 190.892 0 00-27.449-17.567 211.714 211.714 0 00-32.887-13.902 229.086 229.086 0 00-34.395-8.348A240.367 240.367 0 00200.495 8c-9.596 0-19.182.564-28.699 1.693a232.685 232.685 0 00-31.458 5.951 218.751 218.751 0 00-30.555 10.447 201.266 201.266 0 00-31.715 17.011A178.498 178.498 0 0053.13 62.906a160.393 160.393 0 00-11.551 12.24c-7.661 9-14.25 18.882-19.48 29.477a130.61 130.61 0 00-6.996 17.15c-7.066 21.577-8.029 44.777-2.72 66.819a128.8 128.8 0 0011.264 29.825c4.952 9.426 11.065 18.358 17.981 26.497 7.513 8.833 16.235 17.061 25.504 24.181a190.909 190.909 0 0027.449 17.566 211.683 211.683 0 0032.886 13.902 229.042 229.042 0 0034.395 8.347 240.324 240.324 0 0038.633 3.09c9.596 0 19.182-.565 28.699-1.693a232.794 232.794 0 0031.458-5.951 218.754 218.754 0 0030.554-10.447 201.192 201.192 0 0031.716-17.012 178.509 178.509 0 0024.938-19.803 160.337 160.337 0 0011.551-12.239c7.661-9.001 14.25-18.883 19.48-29.478a129.982 129.982 0 006.996-17.151A122.531 122.531 0 00392 160.005zm-2.054 0c0 9.466-1.112 18.903-3.325 28.112a126.705 126.705 0 01-11.084 29.349 135.621 135.621 0 01-7.711 12.912c-6.182 9.169-13.387 17.606-21.385 25.24a171.454 171.454 0 01-13.834 11.863 189.081 189.081 0 01-27.15 17.378 209.918 209.918 0 01-32.57 13.763 226.29 226.29 0 01-34.077 8.268 238.536 238.536 0 01-38.305 3.07c-20.274 0-40.141-2.485-59.641-7.585a217.684 217.684 0 01-30.267-10.347 199.116 199.116 0 01-31.388-16.834 176.39 176.39 0 01-24.65-19.576c-8.525-8.129-16.017-17.021-22.437-26.824-6.411-9.793-11.442-20.141-15.064-31.191a120.955 120.955 0 01-6.004-37.588c0-9.466 1.111-18.903 3.324-28.112a126.848 126.848 0 0111.085-29.349 136.882 136.882 0 017.71-12.912c6.183-9.17 13.387-17.606 21.386-25.24 4.396-4.199 9.01-8.15 13.833-11.863a189.013 189.013 0 0127.151-17.378 209.956 209.956 0 0132.569-13.764 226.363 226.363 0 0134.078-8.268 238.581 238.581 0 0138.305-3.07c9.546 0 18.974.555 28.461 1.684a229.831 229.831 0 0131.18 5.902 217.635 217.635 0 0130.266 10.347 199.158 199.158 0 0131.389 16.833 177.013 177.013 0 0124.65 19.577c8.524 8.139 16.017 17.021 22.437 26.824 6.411 9.793 11.442 20.141 15.064 31.191a120.67 120.67 0 016.004 37.588z" fill="#C6A86A"/><path d="M343.89 243.68h-65.38v1.14h65.38v-1.14zM133.84 243.68H68.46v1.14h65.38v-1.14z" fill="#C6A86A"/><path fill-rule="evenodd" clip-rule="evenodd" d="M268.73 251.18c0 .18.11.3.33.34.3.06 1 .09 2.09.09.82 0 1.47-.03 1.96-.09.18-.02.28-.04.29-.04.07-.04.1-.13.1-.28 0-.89-.02-2.22-.07-4-.04-1.78-.07-3.11-.07-4 0-.8.04-2.01.13-3.62.09-1.61.13-2.81.13-3.62 0-.16-.11-.25-.33-.25-.23 0-.58.01-1.03.03-.45.02-.8.03-1.03.03-.23 0-.58-.01-1.05-.03-.47-.02-.82-.03-1.05-.03-.17 0-.26.08-.26.25 0 .8.03 2.01.08 3.62.05 1.61.08 2.81.08 3.62 0 .95-.07 2.95-.2 5.99-.07 1.41-.1 2.07-.1 1.99zM266.53 251.71c.27 0 .42-.01.46-.02.12-.04.2-.15.24-.35.19-.93.28-2.04.28-3.32 0-.17-.1-.26-.3-.26-.68 0-1.69.04-3.04.11s-2.36.11-3.04.11h-.29c-.1-.02-.16-.08-.17-.17-.01-.09-.02-.18-.02-.27-.01-.44-.01-1.14-.01-2.11l.01-2.97c.11-2.83.21-4.95.3-6.36l.01-.15c.01-.14-.05-.21-.16-.21-.25 0-.62.01-1.1.04-.49.03-.86.04-1.1.04-.22 0-.55-.01-1-.03-.45-.02-.78-.03-1.01-.03-.23 0-.34.08-.34.25 0 .87.03 2.17.08 3.91.05 1.74.08 3.04.08 3.91 0 .82-.01 2.04-.04 3.68-.03 1.63-.04 2.86-.04 3.68 0 .2.11.31.33.35.63.04 1.11.05 1.45.05l3.37.04c.33.01 1.17.03 2.52.06 1.05.01 1.89.02 2.53.02zM254.01 241.71c0-.17-.09-.25-.27-.25-.15 0-.35.02-.61.04-.33.03-.54.05-.62.06-.97.05-1.93.08-2.87.08-.14 0-.32.01-.54.02-.22.01-.36.02-.44.02-.36 0-.6-.07-.73-.21-.15-.17-.22-.5-.22-1.01 0-.49.02-.78.06-.87.09-.19.33-.28.73-.28 1.59 0 3.39.08 5.38.25.11.01.19.01.24.01.15 0 .22-.08.22-.24 0-.19-.04-.72-.12-1.59-.08-.87-.14-1.4-.17-1.57-.06-.29-.29-.44-.68-.44-.55 0-1.38.02-2.48.04-1.1.03-1.93.05-2.48.05s-1.39-.02-2.5-.05c-1.11-.03-1.95-.04-2.51-.04-.2 0-.3.09-.28.26l.01.16c.06 1.2.1 2.09.12 2.69.09 2.34.14 3.93.14 4.79 0 .84-.05 2.1-.14 3.79-.09 1.69-.14 2.95-.14 3.79 0 .22.12.33.37.33.57 0 1.43 0 2.57.01s2 .01 2.58.01c2.65 0 4.25.04 4.8.11.16.02.27.03.34.03.16 0 .28-.07.37-.21.11-.18.23-.74.36-1.68.13-.86.19-1.46.19-1.78 0-.27-.08-.41-.25-.41-.39 0-.98.04-1.76.11s-1.37.11-1.77.11h-1.64c-.83-.05-1.32-.22-1.44-.51-.07-.17-.11-.53-.11-1.1 0-.43 0-.66.01-.7.05-.15.23-.22.54-.22h1.19c1.52 0 2.5.02 2.93.07l1.01.11c.22 0 .33-.07.33-.22 0-.6.03-1.2.09-1.8.12-1.31.19-1.89.19-1.76zM241.41 243.54c0-1.22-.26-2.4-.79-3.55-.55-1.22-1.3-2.16-2.24-2.84-1.01-.72-2.4-1.17-4.18-1.35-.68-.07-2.18-.1-4.49-.1-1.22 0-2.09.03-2.62.09-.22.03-.33.12-.33.28 0 .86.03 2.15.1 3.87.06 1.72.1 3.02.1 3.88 0 .83-.03 2.07-.1 3.72-.06 1.65-.1 2.9-.1 3.72 0 .17.11.26.33.26.37 0 .92.01 1.66.03.74.02 1.29.03 1.66.03 1.96 0 3.16-.01 3.59-.02 2.27-.08 4.03-.84 5.28-2.29 1.42-1.61 2.13-3.53 2.13-5.73zm-4.31 0c0 1.34-.35 2.41-1.05 3.23-.74.86-1.76 1.29-3.06 1.29-1.2 0-1.8-.16-1.8-.48 0-.44-.01-1.1-.02-1.98-.01-.87-.02-1.53-.02-1.97 0-.44.01-1.11.02-2 .02-.89.02-1.55.02-2 0-.31.58-.46 1.73-.46 1.26 0 2.27.42 3.04 1.25.76.81 1.14 1.85 1.14 3.12zM219.24 251.01v-2.38c0-.2-.27-.3-.81-.3-1.1 0-1.88-.38-2.34-1.15.32-.53.72-.91 1.19-1.13.19-.09.54-.19 1.07-.3.33-.07.52-.19.56-.37.12-.45.18-1.12.18-1.99 0-.37-.08-.59-.25-.68-.1-.04-.36-.07-.8-.07-.8 0-1.52.22-2.14.65-.46.32-.98.87-1.58 1.62-.41-.5-.71-.88-.92-1.13-.39-.52-.67-.91-.86-1.18.13-.11.46-.36 1-.75.41-.31.73-.59.96-.86.54-.63.81-1.31.81-2.03 0-1.08-.32-1.93-.96-2.53-.62-.59-1.48-.88-2.57-.88-1.27 0-2.26.37-2.97 1.11-.71.74-1.07 1.75-1.07 3.01 0 .67.23 1.58.7 2.75-1.4.9-2.31 1.58-2.73 2.05-.75.84-1.13 1.9-1.13 3.17 0 1.22.33 2.23.98 3.01.7.84 1.65 1.26 2.85 1.26 1.17 0 2.18-.29 3.02-.86.83-.68 1.44-1.2 1.82-1.57 1.23 1.4 2.3 2.09 3.22 2.09.25 0 .61-.01 1.09-.03.48-.02.84-.03 1.08-.03.4.01.6-.16.6-.5zm-6.16-12.32c0 .71-.66 1.42-1.98 2.15-.47-.61-.71-1.24-.71-1.89 0-.4.14-.72.42-.96.28-.24.62-.36 1.03-.36.82 0 1.24.36 1.24 1.06zm-1.2 8.77c-.15.4-.45.74-.9 1.04-.45.29-.89.44-1.32.44-.48 0-.86-.17-1.15-.5-.28-.31-.42-.71-.42-1.19 0-.47.17-.95.51-1.43.32-.46.69-.8 1.12-1.04.04.05.38.5 1.03 1.38.42.56.8 1 1.13 1.3zM197.87 239.17c0-.18-.02-.45-.07-.82-.05-.36-.07-.64-.07-.83 0-.17.01-.45.02-.85.01-.36.02-.64.02-.84-.01-.13-.02-.2-.05-.22-.02-.02-.11-.03-.26-.03-.01 0-.5.04-1.47.11-1.82.14-3.06.21-3.74.21-2.38 0-4.18-.08-5.39-.24-.09-.01-.14-.01-.16-.01-.13 0-.22.28-.27.84-.03.35-.06.71-.08 1.06-.02.11-.08.43-.2.96-.11.48-.16.77-.16.87 0 .07.06.11.18.11.89 0 2.09-.08 3.59-.23.06 2.03.09 3.33.09 3.92 0 .89-.04 2.21-.11 3.99-.07 1.77-.11 3.1-.11 3.99 0 .2.1.31.31.35.39.06 1.07.09 2.04.09.87 0 1.53-.03 1.98-.09.19-.02.29-.04.32-.06.07-.04.1-.13.1-.27 0-.88-.04-2.22-.11-4-.07-1.78-.11-3.11-.11-4 0-.75.02-2.08.07-3.98 1.98.11 3.1.17 3.39.17.17.02.25-.05.25-.2zM185.76 251.24c0-.2-.89-2.63-2.68-7.27-1.78-4.62-2.85-7.32-3.22-8.11-.12-.25-.25-.37-.39-.37-.19 0-.49.01-.88.04s-.69.04-.9.04c-.21 0-.53-.02-.95-.06-.42-.04-.74-.06-.94-.06-.12 0-.23.14-.31.43-.16.5-1.16 3.23-3 8.21-1.7 4.6-2.55 7-2.55 7.2 0 .22.57.33 1.72.33 1.46 0 2.31-.03 2.57-.09.2-.05.38-.39.52-1.01.16-.68.3-1.08.43-1.21.08-.07.76-.1 2.04-.1 1.89 0 2.9.03 3.02.08.14.08.34.65.6 1.74.07.28.23.45.48.51.31.06 1 .09 2.07.09 1.17 0 1.87-.03 2.09-.09.18-.07.28-.17.28-.3zm-7.99-10.26c.16.3.41.99.74 2.07.35 1.12.52 1.8.52 2.05 0 .07-.01.12-.02.16-.05.12-.33.18-.82.18-.53 0-.92-.01-1.15-.02-.45-.01-.68-.09-.68-.22 0-.2.2-.89.61-2.06.38-1.11.65-1.83.8-2.16zM168.73 241.71c0-.17-.09-.25-.27-.25-.15 0-.35.02-.61.04-.33.03-.54.05-.62.06-.97.05-1.92.08-2.87.08-.14 0-.32.01-.54.02-.22.01-.37.02-.44.02-.36 0-.6-.07-.73-.21-.15-.17-.23-.5-.23-1.01 0-.49.02-.78.06-.87.09-.19.33-.28.73-.28 1.59 0 3.39.08 5.38.25.11.01.19.01.24.01.15 0 .23-.08.23-.24 0-.19-.04-.72-.12-1.59-.08-.87-.14-1.4-.17-1.57-.06-.29-.29-.44-.68-.44-.55 0-1.37.02-2.48.04-1.1.03-1.93.05-2.48.05-.56 0-1.39-.02-2.5-.05-1.11-.03-1.95-.04-2.51-.04-.2 0-.3.09-.28.26l.01.16c.06 1.2.1 2.09.12 2.69.09 2.34.13 3.93.13 4.79 0 .84-.05 2.1-.14 3.79-.09 1.69-.14 2.95-.14 3.79 0 .22.12.33.37.33.57 0 1.43 0 2.57.01s2 .01 2.58.01c2.65 0 4.25.04 4.8.11.16.02.27.03.34.03.16 0 .28-.07.37-.21.1-.18.23-.74.36-1.68.13-.86.19-1.46.19-1.78 0-.27-.08-.41-.25-.41-.39 0-.98.04-1.76.11s-1.38.11-1.77.11h-1.65c-.83-.05-1.31-.22-1.44-.51-.07-.17-.11-.53-.11-1.1 0-.43 0-.66.01-.7.05-.15.23-.22.54-.22h1.19c1.52 0 2.5.02 2.93.07l1.01.11c.22 0 .33-.07.33-.22 0-.6.03-1.2.09-1.8.14-1.31.21-1.89.21-1.76zM155.78 251.17c0-.81-.03-2.03-.1-3.67-.07-1.64-.1-2.87-.1-3.68 0-.89.03-2.21.09-3.97.07-1.76.1-3.08.1-3.97 0-.18-.11-.27-.34-.27-.19 0-.47.02-.86.06-.39.04-.68.06-.86.06-.22 0-.56-.01-1-.03-.44-.02-.77-.03-.99-.03-.15 0-.29.15-.42.44-1.49 3.18-2.61 5.55-3.37 7.13-.27.56-.45.84-.53.84-.16 0-.35-.24-.59-.73l-3.29-7.22c-.15-.32-.27-.47-.35-.47-.41 0-1.03.01-1.86.04-.83.03-1.45.04-1.86.04-.32 0-.48.08-.47.23l.01.19c.06 1.23.09 2.16.1 2.78.08 2.4.11 4.03.11 4.9 0 .82-.04 2.05-.12 3.69-.08 1.64-.12 2.87-.12 3.69 0 .12.02.2.05.25.03.05.13.07.28.07h3.76c.21 0 .32-.13.32-.39 0-.74-.02-1.84-.06-3.31-.04-1.47-.06-2.57-.06-3.31 0-.15.03-.26.08-.33.05.05.09.09.1.12.35.74.88 1.95 1.59 3.62.66 1.58 1.19 2.78 1.6 3.6.08.15.31.22.7.22.26 0 .41 0 .45-.01.11-.03.21-.13.28-.31.54-1.33 1.08-2.66 1.62-4 .92-2.27 1.43-3.44 1.51-3.48.07.02.1.13.1.35 0 .76-.03 1.89-.09 3.41-.06 1.52-.08 2.65-.08 3.41 0 .26.11.39.33.39h3.99c.24 0 .35-.12.35-.35zM321.33 206.41v-21.1c0-1.39.03-2.19.09-2.41.06-.22.32-.33.76-.33h10.12c.5 0 .83-.27.99-.8.16-.54.24-.99.24-1.37 0-.38-.06-.82-.19-1.33-.13-.5-.41-.76-.85-.76h-9.84c-.7 0-1.09-.08-1.18-.24-.09-.16-.14-.74-.14-1.75v-8.14c0-.25-.21-.46-.62-.62-.41-.16-.87-.24-1.37-.24-.51 0-.98.09-1.42.28-.44.19-.69.47-.76.85-.32 2.08-.71 3.77-1.18 5.06-.48 1.29-1.11 2.32-1.89 3.08-.79.76-1.75 1.31-2.88 1.66-1.14.35-2.49.58-4.07.71-.25 0-.44.19-.57.57-.13.38-.17.79-.14 1.23.03.44.11.85.24 1.23.12.38.28.57.47.57 1.33 0 2.35.02 3.07.05.72.03 1.25.14 1.56.33.32.19.5.5.57.95.06.44.1 1.04.1 1.8v24.32c0 4.1.88 7.11 2.65 9.04 1.77 1.92 4.79 2.89 9.08 2.89 2.58 0 4.84-.41 6.76-1.23 1.92-.82 3.48-2.21 4.68-4.16.13-.19.14-.41.05-.66a2.29 2.29 0 00-.43-.71 1.58 1.58 0 00-.66-.47c-.25-.09-.47-.08-.66.05-.69.51-1.69.98-2.98 1.42-1.29.44-2.67.66-4.12.66-2.08 0-3.52-.85-4.31-2.55-.78-1.73-1.17-4.34-1.17-7.88zM278.14 196.86h26.96c.95 0 1.42-.66 1.42-1.99 0-2.58-.42-5-1.28-7.24-.85-2.24-2.03-4.16-3.55-5.77-1.51-1.61-3.36-2.87-5.53-3.78-2.18-.91-4.59-1.37-7.24-1.37-3.15 0-6.03.6-8.61 1.8-2.59 1.2-4.83 2.81-6.72 4.83-1.89 2.02-3.36 4.42-4.4 7.19-1.04 2.78-1.56 5.71-1.56 8.8 0 3.22.43 6.2 1.28 8.94.85 2.74 2.18 5.14 3.97 7.19 1.8 2.05 4.07 3.64 6.81 4.78 2.74 1.13 6.01 1.7 9.79 1.7 3.72 0 6.84-.5 9.37-1.51 2.52-1.01 4.79-2.84 6.81-5.49.19-.25.25-.53.19-.85-.06-.32-.21-.6-.43-.85s-.51-.41-.85-.47c-.35-.06-.68.03-.99.28-1.45 1.2-3.19 1.97-5.21 2.32-2.02.35-4.1.52-6.24.52-2.08 0-4.02-.31-5.82-.95-1.8-.63-3.34-1.66-4.64-3.07-1.29-1.42-2.3-3.26-3.03-5.53-.73-2.27-1.09-5.05-1.09-8.33 0-.32.01-.58.05-.8.05-.24.22-.35.54-.35zm17.31-3.31h-17.22c-.25 0-.39-.24-.42-.71-.03-.47.01-1.09.14-1.84.19-1.45.5-2.84.95-4.16.44-1.33 1.09-2.48 1.94-3.45.85-.98 1.89-1.76 3.12-2.36 1.23-.6 2.7-.9 4.4-.9 1.39 0 2.62.28 3.69.85a8.72 8.72 0 012.74 2.27c.76.95 1.34 2.03 1.75 3.26.41 1.23.62 2.51.62 3.83 0 .88-.07 1.64-.19 2.27-.13.62-.63.94-1.52.94z" fill="#fff"/><path fill-rule="evenodd" clip-rule="evenodd" d="M271.16 221.46c.38 0 .66-.14.85-.43.19-.28.28-.58.28-.9 0-.38-.09-.72-.28-1.04a.934.934 0 00-.85-.47c-.7-.06-1.37-.19-2.03-.38-.66-.19-1.22-.44-1.66-.76-1.51-1.2-2.76-2.51-3.74-3.93-.98-1.42-1.86-2.87-2.65-4.35-.79-1.48-1.58-2.92-2.37-4.3a16.7 16.7 0 00-2.89-3.74c-1.13-1.1-2.54-2.02-4.21-2.74-1.67-.73-3.77-1.15-6.29-1.28-.19 0-.32-.09-.38-.28-.06-.19.03-.38.29-.57.76-.57 1.66-1.29 2.7-2.18 1.04-.88 2.11-1.81 3.22-2.79 1.1-.98 2.13-1.91 3.08-2.79.95-.88 1.7-1.58 2.27-2.08.88-.82 1.64-1.53 2.27-2.13.63-.6 1.29-1.12 1.99-1.56.69-.44 1.45-.79 2.27-1.04.82-.25 1.86-.44 3.12-.57a1 1 0 00.71-.52c.16-.28.24-.58.24-.9 0-.38-.09-.71-.28-.99-.19-.28-.41-.43-.66-.43-1.45 0-2.93.11-4.45.33-1.51.22-3 .33-4.45.33-.76 0-1.42-.03-1.99-.09-.57-.06-1.15-.14-1.75-.24-.6-.09-1.26-.17-1.99-.24-.72-.06-1.59-.09-2.6-.09-.32 0-.57.14-.76.43-.19.28-.28.62-.28.99 0 .32.1.63.28.95.19.32.44.47.76.47 2.02.13 3.11.55 3.26 1.28.16.73-.39 1.91-1.66 3.55-.57.7-1.23 1.51-1.99 2.46s-1.58 1.92-2.46 2.93c-.88 1.01-1.86 1.99-2.93 2.93-1.08.95-2.21 1.8-3.41 2.55v-40.31c-.06-.38-.24-.74-.52-1.09-.28-.35-.87-.39-1.75-.14-2.34.7-4.88 1.17-7.62 1.42-2.75.25-5.25.44-7.52.57-.38 0-.65.16-.8.47-.16.32-.22.63-.19.95.03.32.12.63.28.95.16.32.39.47.71.47 2.02.19 3.6.44 4.73.76 1.13.32 1.99.92 2.56 1.8.57.88.91 2.13 1.04 3.74.13 1.61.19 3.77.19 6.48v37.18c0 1.45-.03 2.67-.1 3.64-.06.98-.32 1.8-.76 2.46-.44.66-1.15 1.18-2.13 1.56-.98.38-2.35.66-4.12.85-.38.06-.66.24-.85.52-.19.28-.28.62-.28.99 0 .32.09.62.28.9.19.28.44.43.76.43 2.02 0 4-.11 5.96-.33 1.95-.22 3.94-.33 5.96-.33 1.89 0 3.56.11 5.01.33 1.45.22 3.06.33 4.83.33.38 0 .66-.14.85-.43.19-.28.28-.58.28-.9 0-.32-.09-.63-.28-.95-.19-.32-.47-.5-.85-.57-1.45-.25-2.55-.6-3.31-1.04a3.952 3.952 0 01-1.66-1.8c-.35-.76-.55-1.73-.61-2.93-.06-1.2-.1-2.71-.1-4.54v-7.38c1.7 0 3.42.51 5.16 1.51 1.74 1.01 3.36 2.4 4.88 4.16 1.51 1.77 2.85 3.8 4.02 6.1 1.17 2.3 2 4.78 2.51 7.43.06.25.19.54.38.85.19.31.5.47.95.47 1.07 0 2.22-.05 3.45-.14 1.23-.09 2.47-.14 3.74-.14 1.14 0 2.22.03 3.27.09 1.04.09 2.06.15 3.07.22z" fill="#fff"/><path fill-rule="evenodd" clip-rule="evenodd" d="M164.63 221.93c3.28 0 6.01-.47 8.19-1.42 2.18-.95 4.08-2.14 5.73-3.6.25-.25.44-.22.57.09.63 1.33 1.59 2.48 2.89 3.45 1.29.98 2.85 1.47 4.68 1.47 1.48 0 2.87-.29 4.18-.87.19.27.43.4.74.4 2.02 0 4.02-.11 6.01-.33 1.99-.22 3.99-.33 6.01-.33 1.89 0 3.88.11 5.96.33 2.08.22 4.48.33 7.19.33.38 0 .66-.14.85-.43.19-.28.28-.58.28-.9 0-.38-.09-.71-.28-.99-.19-.28-.47-.46-.85-.52-2.27-.19-4.01-.47-5.2-.85-1.2-.38-2.08-.92-2.65-1.61-.57-.69-.9-1.57-1-2.65-.09-1.07-.14-2.4-.14-3.97v-17.79c0-.63.19-1.51.57-2.65.38-1.14.91-2.24 1.61-3.31.7-1.07 1.53-2 2.51-2.79.98-.79 2.07-1.18 3.26-1.18 1.13 0 1.88.25 2.22.76.35.51.52 1.2.52 2.08 0 .82.28 1.58.85 2.27.57.7 1.58 1.04 3.03 1.04 1.51 0 2.68-.44 3.5-1.32.82-.88 1.23-1.86 1.23-2.93 0-1.96-.63-3.61-1.89-4.97-1.26-1.36-3.22-2.03-5.87-2.03-3.22 0-5.79.79-7.71 2.36-1.92 1.58-3.55 3.69-4.87 6.34-.13.13-.22.17-.29.14-.06-.03-.09-.11-.09-.24l.19-6.06c.06-.88-.19-1.42-.76-1.61-.57-.19-1.29-.16-2.18.09-2.34.63-4.62 1.03-6.86 1.18-2.24.16-3.99.3-5.25.43-.38 0-.65.16-.8.47-.16.32-.24.63-.24.95 0 .32.08.63.24.95.16.32.39.47.71.47 1.76.13 3.15.35 4.16.66 1.01.31 1.75.96 2.22 1.94.47.98.77 2.37.9 4.16.13 1.8.19 4.24.19 7.33v13.81c0 1.45-.05 2.67-.14 3.64-.1.98-.36 1.8-.8 2.46-.44.66-1.15 1.18-2.13 1.56-.28.11-.59.21-.93.3.17-.19.34-.38.51-.58.19-.19.25-.42.19-.71a2 2 0 00-.33-.76c-.16-.22-.35-.39-.57-.52-.22-.13-.43-.13-.62 0-.82.5-1.45.84-1.89.99-.44.16-1.01.24-1.7.24-1.2 0-2-.44-2.41-1.33-.41-.88-.62-2.43-.62-4.64v-18.92c0-5.42-1.45-9.3-4.35-11.64-2.9-2.33-6.88-3.5-11.92-3.5-2.21 0-4.32.3-6.34.9-2.02.6-3.78 1.4-5.3 2.41-1.51 1.01-2.71 2.22-3.6 3.64-.88 1.42-1.32 2.92-1.32 4.49 0 1.32.36 2.44 1.09 3.36.73.91 1.94 1.37 3.64 1.37 1.26 0 2.33-.41 3.22-1.23.88-.82 1.32-1.67 1.32-2.56 0-.69-.22-1.37-.66-2.03-.44-.66-.66-1.34-.66-2.03 0-1.45.72-2.63 2.17-3.55 1.45-.91 3.34-1.37 5.68-1.37 1.58 0 2.9.3 3.97.9 1.07.6 1.91 1.42 2.51 2.46.6 1.04 1.02 2.26 1.28 3.64.25 1.39.38 2.87.38 4.45v2.56c0 1.14-.03 1.86-.09 2.18-.07.32-.16.47-.29.47-8.07 0-14.22 1.22-18.45 3.64-4.23 2.43-6.34 5.91-6.34 10.46 0 2.89.65 5.24 1.97 7.06.77 1.07 1.62 1.83 2.76 2.49 1.72 1.04 3.9 1.55 6.51 1.55zm13.91-20.53v10.31c0 .5-.25 1.01-.76 1.51-1.26 1.08-2.7 1.89-4.31 2.46-1.61.57-3.14.85-4.59.85-2.21 0-3.78-.65-4.73-1.94-.95-1.29-1.42-2.89-1.42-4.78 0-2.71 1.24-4.93 3.74-6.67 2.49-1.73 6.32-2.82 11.5-3.26.25 0 .41.08.48.24.06.16.09.59.09 1.28z" fill="#fff"/><path fill-rule="evenodd" clip-rule="evenodd" d="M156.39 219.32a2.01 2.01 0 00-.97-.96.516.516 0 00-.11-.02c-1.89-.19-3.44-.42-4.64-.71-1.2-.28-2.13-.74-2.79-1.37-.66-.63-1.12-1.53-1.37-2.7-.25-1.17-.38-2.79-.38-4.87v-34.91c0-3.03.06-5.36.19-7 .13-1.64.48-2.89 1.04-3.74.57-.85 1.45-1.43 2.65-1.75 1.2-.31 2.87-.66 5.01-1.04.31-.06.57-.25.76-.57.19-.31.28-.66.28-1.04s-.08-.72-.24-1.04c-.16-.31-.43-.47-.8-.47-1.26 0-2.95.03-5.06.1-2.11.06-4.2.14-6.24.24-2.05.1-3.85.22-5.39.38-1.55.16-2.35.36-2.41.62L117 203.6c-.13.19-.28.28-.47.28-.13 0-.25-.09-.38-.28l-19.21-45.13c-.13-.25-.61-.46-1.47-.62-.85-.16-1.91-.28-3.17-.38-1.26-.1-2.67-.16-4.21-.19-1.55-.03-3.04-.06-4.49-.09-1.45-.03-2.78-.05-3.97-.05h-2.55c-.38 0-.68.16-.9.47-.22.32-.33.66-.33 1.04s.11.74.33 1.09c.22.35.52.52.9.52 1.64.13 3 .3 4.07.52 1.07.22 1.94.63 2.6 1.23.66.6 1.14 1.44 1.42 2.51.28 1.08.43 2.56.43 4.45v39.45c0 2.27-.14 4.04-.43 5.3-.28 1.26-.76 2.21-1.42 2.84-.66.63-1.55 1.06-2.65 1.28-1.1.22-2.48.43-4.12.61-.38.06-.66.25-.85.57-.19.32-.27.66-.24 1.04.03.38.14.73.33 1.04.19.32.44.47.76.47 1.26 0 2.82-.13 4.68-.38 1.86-.25 3.99-.38 6.39-.38 2.27 0 4.24.13 5.91.38s3.2.38 4.59.38c.38 0 .65-.16.81-.47.16-.32.23-.66.23-1.04s-.08-.72-.23-1.04c-.16-.31-.4-.5-.71-.57-1.45-.19-2.71-.39-3.79-.61-1.07-.22-1.97-.65-2.7-1.28-.73-.63-1.28-1.58-1.65-2.84-.38-1.26-.57-3.03-.57-5.3v-35.2c0-.5.2-.73.61-.66.41.06.68.25.8.57l20.82 47.68c.06.19.24.33.52.43a2.973 2.973 0 001.8 0c.28-.1.46-.24.52-.43.88-2.65 1.78-5.28 2.7-7.9.91-2.62 1.84-5.03 2.79-7.24l13.62-32.08c.13-.38.44-.58.95-.62.5-.03.76.17.76.62v35.1c0 2.08-.11 3.71-.33 4.87-.22 1.17-.66 2.07-1.33 2.7-.66.63-1.58 1.09-2.74 1.37-1.17.29-2.73.52-4.68.71-.38.06-.66.27-.85.61-.19.35-.28.71-.28 1.09 0 .38.1.73.28 1.04.19.32.47.47.85.47 2.08 0 4.4-.13 6.95-.38 2.56-.25 5.03-.38 7.43-.38 2.27 0 4.56.13 6.86.38 2.3.25 4.72.38 7.24.38.44 0 .77-.16.99-.47.22-.32.33-.66.33-1.04-.02-.25-.07-.49-.16-.72zM363.38 111.45c.06-.19-.03-.35-.29-.47-.25-.12-.54-.2-.85-.24a3.04 3.04 0 00-.95.05c-.32.06-.5.22-.57.47-.25.88-.58 1.4-1 1.56-.41.16-.74.17-.99.05-1.64-1.07-3.14-1.81-4.49-2.22-1.36-.41-2.92-.62-4.68-.62-1.83 0-3.69.22-5.58.66-1.89.44-3.61 1.15-5.16 2.13-1.55.98-2.81 2.26-3.78 3.83-.98 1.58-1.47 3.5-1.47 5.77 0 1.96.31 3.6.95 4.92.63 1.32 1.47 2.43 2.51 3.31 1.04.88 2.24 1.62 3.6 2.22 1.36.6 2.73 1.18 4.12 1.75.95.38 1.88.76 2.79 1.13.91.38 1.81.76 2.7 1.14 1.89.88 3.55 1.91 4.97 3.07 1.42 1.17 2.13 2.76 2.13 4.78 0 2.27-.71 4.04-2.13 5.3-1.42 1.26-3.26 1.89-5.54 1.89-2.08 0-3.86-.24-5.34-.71s-2.74-1.18-3.79-2.13c-1.04-.95-1.91-2.11-2.6-3.5-.69-1.39-1.26-3-1.7-4.83-.06-.25-.24-.42-.52-.52-.28-.09-.58-.12-.9-.09-.32.03-.6.11-.85.24s-.38.32-.38.57c0 .32.03.82.09 1.51.06.7.14 1.48.24 2.37.09.88.19 1.78.28 2.7.09.91.14 1.75.14 2.51 0 .76-.06 1.58-.19 2.46-.13.88-.19 1.58-.19 2.08 0 .19.13.33.38.43.25.09.5.14.76.14.32 0 .62-.03.9-.09s.43-.19.43-.38c.12-.69.39-1.17.8-1.42.41-.25.8-.31 1.18-.19 1.51.69 3.28 1.23 5.3 1.61 2.02.38 3.85.57 5.49.57 1.95 0 3.94-.22 5.96-.66 2.02-.44 3.82-1.15 5.39-2.13 1.58-.98 2.87-2.27 3.88-3.88 1.01-1.61 1.51-3.61 1.51-6.01 0-1.83-.3-3.44-.9-4.83-.6-1.39-1.42-2.63-2.46-3.74-1.04-1.1-2.27-2.07-3.69-2.89-1.42-.82-2.95-1.61-4.59-2.36-.76-.32-1.75-.71-2.98-1.18s-2.29-.87-3.17-1.18c-2.08-.76-3.75-1.58-5.01-2.46-1.26-.88-1.89-2.14-1.89-3.78 0-1.95.76-3.52 2.27-4.68 1.51-1.17 3.44-1.75 5.77-1.75 3.47 0 5.99.9 7.57 2.7 1.58 1.8 2.71 4.37 3.41 7.71.06.19.22.33.47.43.25.09.54.13.85.09.32-.03.6-.11.85-.24.25-.12.38-.28.38-.47 0-.69-.03-1.69-.09-2.98s-.09-2.54-.09-3.74c0-1.14.08-2.21.24-3.22.14-1.02.31-1.87.5-2.56zM323.68 111.64c1.51-.88 2.92-1.77 4.22-2.65 1.39-.95 2.57-1.99 3.55-3.13.97-1.13 1.75-2.47 2.32-4.02.57-1.55.85-3.42.85-5.63 0-1.01-.16-1.99-.47-2.93-.32-.95-.77-1.8-1.37-2.55-.6-.76-1.32-1.36-2.18-1.8-.85-.44-1.85-.66-2.98-.66-1.45 0-2.74.47-3.88 1.42-1.13.95-1.7 2.14-1.7 3.6 0 1.45.36 2.66 1.09 3.64.72.98 1.81 1.53 3.26 1.66.76.06 1.29.17 1.61.33.31.16.53.49.66.99.31 1.26.36 2.35.14 3.27-.22.92-.64 1.75-1.27 2.51-.63.75-1.39 1.48-2.27 2.17-.89.7-1.83 1.42-2.84 2.18-.25.18-.37.4-.37.64-1.05-.43-2.31-.64-3.79-.64-3.21 0-5.79.79-7.71 2.37s-3.55 3.69-4.87 6.34c-.13.12-.22.17-.29.14-.06-.03-.1-.11-.1-.24l.19-6.06c.06-.88-.19-1.41-.76-1.6-.57-.19-1.29-.16-2.18.1-2.33.63-4.62 1.02-6.86 1.18-2.24.15-3.99.3-5.25.42-.38 0-.65.16-.8.48-.16.31-.24.63-.24.94 0 .32.08.63.24.95.15.32.39.47.7.47 1.76.13 3.15.35 4.16.66 1.01.32 1.75.96 2.22 1.94.48.98.77 2.36.91 4.16.12 1.8.18 4.24.18 7.33v13.81c0 1.45-.04 2.67-.14 3.65-.09.97-.36 1.79-.8 2.46-.45.66-1.15 1.18-2.13 1.56-.97.38-2.35.66-4.11.85-.38.06-.66.24-.85.52-.19.28-.29.61-.29.99 0 .31.1.61.29.9.19.29.44.43.76.43 2.02 0 4.02-.11 6.01-.33 1.99-.22 3.98-.33 6-.33 1.9 0 3.88.11 5.97.33 2.08.22 4.47.33 7.19.33.38 0 .66-.14.85-.43.19-.29.28-.59.28-.9 0-.38-.09-.71-.28-.99-.19-.29-.47-.46-.85-.52-2.27-.19-4-.47-5.2-.85-1.2-.38-2.08-.91-2.65-1.6-.57-.69-.9-1.58-.99-2.66-.1-1.07-.15-2.39-.15-3.97v-17.79c0-.63.19-1.52.57-2.65.38-1.13.92-2.23 1.61-3.31.69-1.07 1.53-2 2.51-2.79.97-.79 2.06-1.18 3.27-1.18 1.13 0 1.87.25 2.22.76.34.5.52 1.2.52 2.08 0 .82.28 1.57.85 2.27.57.69 1.58 1.05 3.03 1.05 1.52 0 2.68-.44 3.5-1.32.82-.89 1.23-1.86 1.23-2.94 0-1.95-.63-3.61-1.89-4.96-.15-.17-.3-.31-.45-.45zm-1.22-.02c.08.08.18.15.29.21.1.06.2.09.29.09a.876.876 0 01-.29-.09 1.27 1.27 0 01-.29-.21zm1.22.02c-.47-.4-1.01-.73-1.64-.98.63.26 1.17.58 1.64.98z" fill="#fff"/><path fill-rule="evenodd" clip-rule="evenodd" d="M262.44 130.18h26.96c.95 0 1.42-.66 1.42-1.99 0-2.59-.43-5-1.28-7.24-.85-2.24-2.04-4.16-3.55-5.77-1.51-1.61-3.36-2.87-5.54-3.78-2.18-.91-4.59-1.37-7.24-1.37-3.15 0-6.02.6-8.61 1.8-2.59 1.2-4.82 2.81-6.72 4.83-1.89 2.02-3.36 4.42-4.4 7.19-1.04 2.78-1.56 5.71-1.56 8.8 0 3.22.43 6.2 1.28 8.94.85 2.74 2.18 5.14 3.98 7.19 1.8 2.05 4.07 3.64 6.81 4.78 2.74 1.14 6.01 1.7 9.79 1.7 3.72 0 6.84-.51 9.37-1.51 2.52-1.01 4.79-2.84 6.81-5.49.19-.25.25-.53.19-.85-.06-.32-.21-.6-.43-.85s-.51-.41-.85-.47c-.35-.06-.68.03-.99.28-1.45 1.2-3.19 1.97-5.2 2.32-2.02.35-4.1.52-6.25.52-2.08 0-4.02-.32-5.82-.95-1.8-.63-3.34-1.65-4.63-3.08-1.29-1.42-2.3-3.26-3.03-5.53-.73-2.27-1.09-5.05-1.09-8.33 0-.32.02-.58.05-.8.04-.23.21-.34.53-.34zm17.31-3.31h-17.22c-.25 0-.4-.24-.43-.71-.03-.47.01-1.09.14-1.85.19-1.45.5-2.84.95-4.16a9.968 9.968 0 011.94-3.45c.85-.98 1.89-1.77 3.12-2.36 1.23-.6 2.7-.9 4.4-.9 1.39 0 2.62.28 3.69.85 1.07.57 1.99 1.32 2.74 2.27.76.95 1.34 2.03 1.75 3.26.41 1.23.62 2.51.62 3.83 0 .88-.06 1.64-.19 2.27-.12.63-.62.95-1.51.95zM218.44 116.84V89.88c-.06-.38-.24-.74-.52-1.09-.28-.35-.87-.39-1.75-.14-2.34.7-4.83 1.17-7.48 1.42-2.65.25-4.89.44-6.72.57-.38 0-.65.16-.8.47-.16.32-.22.63-.19.95.03.32.12.63.28.95.16.32.39.47.71.47 1.76.19 3.15.44 4.16.76 1.01.32 1.76.92 2.27 1.8.5.88.82 2.13.94 3.74.13 1.61.19 3.77.19 6.48v37.18c0 1.58-.05 2.87-.14 3.88-.09 1.01-.33 1.83-.71 2.46-.38.63-.96 1.1-1.75 1.42-.79.32-1.91.57-3.36.76-.44.06-.76.24-.95.52-.19.29-.28.62-.28.99 0 .32.09.61.28.9.19.28.47.42.85.42 1.45 0 3.09-.11 4.92-.33 1.83-.22 3.75-.33 5.77-.33 1.89 0 3.71.11 5.44.33 1.73.22 3.01.33 3.83.33.38 0 .66-.14.85-.42.19-.29.28-.58.28-.9 0-.31-.09-.63-.28-.95-.19-.32-.51-.5-.95-.57-1.2-.19-2.13-.46-2.79-.8-.66-.35-1.15-.83-1.47-1.47-.32-.63-.51-1.5-.57-2.6-.06-1.1-.09-2.51-.09-4.21v-16.75c0-.88.22-1.92.66-3.12.44-1.2 1.12-2.33 2.03-3.41.91-1.07 2.08-1.99 3.5-2.74 1.42-.76 3.14-1.13 5.16-1.13 1.89 0 3.41.41 4.54 1.23 1.13.82 2 1.88 2.6 3.17.6 1.29 1.01 2.73 1.23 4.3.22 1.58.33 3.16.33 4.73v14.29c0 1.58-.05 2.87-.14 3.88-.09 1.01-.32 1.83-.66 2.46-.35.63-.92 1.1-1.71 1.42-.79.32-1.91.57-3.36.76-.44.06-.76.24-.94.52-.19.29-.29.62-.29.99 0 .32.09.61.29.9.19.28.47.42.85.42 1.39 0 3.06-.11 5.02-.33 1.95-.22 3.94-.33 5.96-.33 1.89 0 3.74.11 5.54.33 1.8.22 3.14.33 4.02.33.31 0 .57-.14.75-.42.19-.29.29-.58.29-.9 0-.31-.09-.63-.29-.95-.19-.32-.47-.5-.85-.57-1.32-.25-2.37-.52-3.12-.8-.76-.28-1.31-.72-1.66-1.32-.35-.6-.57-1.4-.66-2.41-.09-1.01-.14-2.33-.14-3.97v-17.5c0-4.73-1.18-8.56-3.55-11.49-2.37-2.93-6.23-4.4-11.59-4.4-2.4 0-4.81.6-7.24 1.8a17.07 17.07 0 00-6.1 5.02c-.16.28-.32.28-.44-.04z" fill="#fff"/><path fill-rule="evenodd" clip-rule="evenodd" d="M177.66 131.13c0-2.21.22-4.37.66-6.48.44-2.11 1.18-4 2.22-5.68 1.04-1.67 2.36-3.01 3.97-4.02 1.61-1.01 3.61-1.51 6.01-1.51 1.83 0 3.5.3 5.02.9 1.51.6 2.27 1.47 2.27 2.6 0 .5-.24 1.04-.71 1.61-.47.57-.71 1.29-.71 2.18 0 1.32.42 2.33 1.28 3.03.85.69 1.94 1.04 3.26 1.04 1.64 0 2.84-.5 3.6-1.51.76-1.01 1.13-2.08 1.13-3.22 0-1.58-.41-2.99-1.23-4.26-.82-1.26-1.91-2.32-3.26-3.17-1.36-.85-2.9-1.5-4.64-1.94-1.74-.44-3.52-.66-5.34-.66-3.79 0-7.13.58-10.03 1.75-2.9 1.17-5.35 2.74-7.33 4.73-1.99 1.99-3.5 4.35-4.54 7.1-1.04 2.74-1.56 5.66-1.56 8.75 0 4.35.63 8 1.89 10.93 1.26 2.93 2.92 5.28 4.97 7.05 2.05 1.77 4.34 3.03 6.86 3.78 2.52.76 5.05 1.14 7.57 1.14 3.78 0 7.06-.49 9.84-1.47 2.78-.98 5.21-2.85 7.29-5.63.19-.25.24-.53.14-.85-.09-.32-.27-.58-.52-.8-.25-.22-.54-.38-.85-.47-.31-.1-.6-.01-.85.24-1.45 1.26-3.23 2.07-5.35 2.41-2.11.35-4.27.52-6.48.52-2.59 0-4.79-.49-6.62-1.47s-3.33-2.3-4.49-3.97c-1.17-1.67-2.03-3.6-2.6-5.77-.59-2.2-.87-4.48-.87-6.88z" fill="#fff"/><path fill-rule="evenodd" clip-rule="evenodd" d="M156.27 139.74v-21.1c0-1.39.03-2.19.09-2.41.06-.22.31-.33.76-.33h10.12c.5 0 .83-.27.99-.8.16-.54.24-.99.24-1.37 0-.38-.06-.82-.19-1.32-.13-.5-.41-.76-.85-.76h-9.84c-.69 0-1.09-.08-1.18-.24-.1-.16-.14-.74-.14-1.75v-8.14c0-.25-.21-.46-.62-.61-.41-.16-.87-.24-1.37-.24-.51 0-.98.09-1.42.28-.44.19-.7.47-.76.85-.32 2.08-.71 3.77-1.18 5.06-.47 1.29-1.1 2.32-1.89 3.08-.79.76-1.75 1.31-2.89 1.66-1.14.35-2.49.58-4.07.71-.25 0-.44.19-.57.57-.13.38-.17.79-.14 1.23.03.44.11.85.24 1.23s.29.57.47.57c1.32 0 2.35.02 3.08.05.72.03 1.24.14 1.56.33.32.19.5.5.57.95.06.44.09 1.04.09 1.8v24.32c0 4.1.88 7.11 2.65 9.04 1.77 1.92 4.79 2.89 9.08 2.89 2.59 0 4.84-.41 6.76-1.23 1.92-.82 3.49-2.21 4.68-4.16.13-.19.14-.41.05-.66-.1-.25-.24-.49-.43-.71a1.58 1.58 0 00-.66-.47c-.25-.09-.47-.08-.66.05-.69.51-1.69.98-2.98 1.42-1.29.44-2.66.66-4.12.66-2.08 0-3.52-.85-4.31-2.55-.76-1.75-1.16-4.37-1.16-7.9zM138.39 137.85v-25.17c0-.38-.16-.83-.47-1.37-.32-.53-.91-.68-1.8-.43-2.34.7-4.45 1.26-6.34 1.7-1.89.44-3.97.73-6.24.85-.38 0-.65.14-.81.43-.16.28-.22.6-.19.95s.13.66.28.95a1 1 0 00.71.52c1.51.19 2.66.41 3.45.66.79.25 1.37.76 1.75 1.51.38.76.6 1.89.66 3.41.06 1.51.1 3.63.1 6.34v14.95c0 .25-.02.63-.05 1.13-.03.51-.14.85-.33 1.04-1.2 1.07-2.97 1.99-5.3 2.74-2.33.76-4.57 1.14-6.72 1.14-1.51 0-2.78-.25-3.78-.76-1.01-.5-1.8-1.33-2.36-2.46-.57-1.13-.96-2.58-1.18-4.35-.22-1.77-.33-3.91-.33-6.43v-22.52c0-.38-.16-.83-.47-1.37-.32-.53-.92-.68-1.8-.43-1.14.32-2.35.62-3.64.9s-2.54.55-3.74.8c-1.2.25-2.32.44-3.36.57-1.04.13-1.88.22-2.51.28-.38 0-.65.16-.8.47-.16.32-.22.63-.19.95.03.32.13.63.28.95.16.32.39.47.71.47 1.51.19 2.71.41 3.59.66.88.25 1.55.76 1.99 1.51.44.76.72 1.89.85 3.41.13 1.51.19 3.63.19 6.34v10.69c0 2.59.22 4.91.66 6.95.44 2.05 1.2 3.77 2.27 5.16 1.07 1.39 2.55 2.44 4.45 3.17 1.89.72 4.29 1.09 7.19 1.09 2.21 0 4.49-.4 6.86-1.18 2.37-.79 4.71-2.19 7.05-4.21.13-.13.25-.17.38-.14s.19.11.19.24c0 3.53.57 5.3 1.7 5.3.25 0 .79-.06 1.61-.19.82-.13 1.7-.29 2.65-.47.95-.19 1.88-.38 2.79-.57.91-.19 1.62-.31 2.13-.38.63-.06 1.15-.13 1.56-.19.41-.06.79-.11 1.13-.14l1.04-.09c.35-.03.77-.05 1.28-.05.31 0 .53-.16.66-.47.12-.31.19-.63.19-.95 0-.38-.08-.71-.24-.99-.16-.28-.36-.43-.62-.43-1.7 0-3.03-.17-3.97-.52-.95-.35-1.66-.98-2.13-1.89-.47-.92-.76-2.18-.85-3.79-.08-1.61-.13-3.71-.13-6.29z" fill="#fff"/><path fill-rule="evenodd" clip-rule="evenodd" d="M54.56 106.62v36.33c0 1.64-.16 2.96-.47 3.97-.32 1.01-.82 1.85-1.51 2.51-.69.66-1.59 1.15-2.7 1.47-1.1.32-2.41.57-3.93.76-.51.06-.87.28-1.09.66-.22.38-.32.76-.28 1.14.03.38.17.73.43 1.04.25.32.6.44 1.04.38 1.32-.13 2.51-.24 3.55-.33 1.04-.09 2.05-.17 3.03-.24.98-.06 2-.11 3.08-.14 1.07-.03 2.27-.05 3.59-.05 1.39 0 2.89.03 4.5.1 1.61.06 3.2.11 4.78.14 1.58.03 3.11.08 4.59.14 1.48.06 2.82.1 4.02.1 2.65 0 5.22-.25 7.71-.76 2.49-.5 4.71-1.37 6.67-2.6 1.95-1.23 3.51-2.92 4.68-5.06 1.17-2.14 1.75-4.86 1.75-8.14 0-2.46-.35-4.59-1.04-6.39-.7-1.8-1.7-3.36-3.03-4.68-1.33-1.32-2.95-2.48-4.87-3.45-1.92-.98-4.12-1.85-6.58-2.6-.38-.13-.6-.35-.66-.66-.06-.32.16-.57.66-.76a31.91 31.91 0 004.35-2.03c1.39-.79 2.59-1.72 3.6-2.79 1.01-1.07 1.81-2.33 2.41-3.79.6-1.45.9-3.15.9-5.11 0-3.15-.74-5.72-2.22-7.71-1.48-1.99-3.37-3.55-5.68-4.68-2.3-1.14-4.81-1.91-7.52-2.32-2.71-.41-5.3-.61-7.76-.61-.95 0-2 .02-3.17.05-1.17.03-2.36.08-3.59.14-1.23.06-2.43.11-3.6.14-1.17.03-2.22.05-3.17.05-2.27 0-4.26-.06-5.96-.19-1.7-.12-3.63-.19-5.77-.19-.38 0-.66.16-.85.47-.19.32-.28.66-.28 1.04s.09.73.28 1.04c.19.32.47.47.85.47.69.06 1.42.16 2.18.28.76.13 1.48.28 2.18.47 1.13.32 2.03.88 2.7 1.7.66.82 1.15 1.8 1.47 2.93.31 1.14.52 2.37.62 3.69.07 1.33.11 2.69.11 4.07zm10.32 29.05v-8.33c0-1.2.2-2.21.62-3.03.41-.82 1.24-1.23 2.51-1.23h1.8c2.27 0 4.41.21 6.43.61 2.02.41 3.77 1.15 5.25 2.22 1.48 1.07 2.66 2.57 3.55 4.49.88 1.93 1.33 4.4 1.33 7.43 0 4.23-.84 7.38-2.51 9.46-1.67 2.08-4.4 3.12-8.18 3.12-2.4 0-4.3-.12-5.72-.38-1.42-.25-2.51-.86-3.26-1.84-.76-.98-1.25-2.46-1.47-4.45-.24-1.97-.35-4.66-.35-8.07zm0-19.02V98.77c0-1.58.11-2.7.33-3.36.22-.66.93-.99 2.13-.99h3.22c4.1 0 7.24.93 9.41 2.79 2.18 1.86 3.27 4.97 3.27 9.32 0 2.59-.36 4.68-1.09 6.29-.73 1.61-1.72 2.89-2.98 3.83-1.26.95-2.76 1.59-4.49 1.94-1.74.35-3.64.52-5.72.52h-1.8c-.82 0-1.4-.25-1.75-.76-.36-.5-.53-1.07-.53-1.7zM138.32 91.77c4.3-1.74 7.4-4.46 9.27-8.15.91-1.78 1.32-3.24 1.21-4.4-.07-.74-.41-1.32-1.02-1.72-.49-.31-1.02-.43-1.59-.38-2.09.19-4.41 1.86-6.96 5-3.14 3.85-4.54 7.62-4.2 11.31.12 1.35.54 2.39 1.24 3.12 1.04 1.05 2.38 1.5 4.02 1.34 1.59-.15 3.27-.81 5.03-1.98 1.76-1.17 3.39-2.63 4.87-4.38 1.91-2.22 2.82-3.76 2.74-4.61-.01-.15-.1-.31-.24-.47-.22-.22-.45-.32-.69-.3-.44.04-.94.45-1.5 1.23-3.19 4.52-6.15 6.9-8.87 7.15-1.24.12-2.17-.21-2.79-.96-.27-.33-.43-.73-.47-1.21l-.05-.59zm.48-2.62c.98-2.97 2.34-5.3 4.07-6.97.97-.95 1.73-1.45 2.3-1.5.41-.04.64.16.68.6.04.41-.08.9-.36 1.45-.76 1.56-1.84 3.01-3.26 4.33-.8.73-1.95 1.43-3.43 2.09z" fill="#fff"/><path fill-rule="evenodd" clip-rule="evenodd" d="M122.13 86.11c.41-1.75 1.65-5.08 3.73-9.98 1.93-4.58 3.9-8.79 5.92-12.65.6-1.09.88-1.94.82-2.55a1.86 1.86 0 00-.42-1.02c-.32-.39-.68-.56-1.07-.53-.42.04-.79.27-1.12.7-.33.43-.78 1.24-1.33 2.43-2.31 4.94-4.39 9.7-6.23 14.26-1.85 4.52-3.78 10.03-5.8 16.5-1.09 3.49-1.59 5.59-1.53 6.31.04.44.21.79.5 1.08.29.26.64.37 1.05.33.59-.05.99-.52 1.19-1.4 2.39-7.74 5.7-12.94 9.94-15.6-1.38 2.92-2.2 4.69-2.48 5.31-1.14 2.61-1.63 4.89-1.45 6.83.06.61.24 1.15.55 1.63.49.77 1.2 1.11 2.14 1.02.89-.08 1.86-.56 2.9-1.42 1.47-1.26 2.82-3 4.07-5.23 1.43-2.55 2.11-4.25 2.03-5.1-.05-.52-.3-.76-.76-.72-.46.04-.93.52-1.42 1.42-2.41 4.44-4.19 6.72-5.37 6.83-.57.05-.88-.22-.93-.8-.06-.61.25-1.8.92-3.58.76-2.05 1.93-4.36 3.52-6.92.82-1.33 1.21-2.29 1.15-2.88-.04-.46-.27-.84-.7-1.16-.38-.27-.75-.39-1.12-.36-.9.08-2.31.94-4.25 2.57-1.51 1.3-2.99 2.85-4.45 4.68zM109.09 79.56c.76-.33 1.53-.66 2.32-.97 2.84-1.12 4.45-1.69 4.82-1.7.91-.17 1.46-.33 1.67-.48.39-.28.56-.67.52-1.17-.09-1-.74-1.45-1.94-1.34-1.05.1-2.75.59-5.11 1.46.33-.71.85-1.65 1.55-2.81 1.06-1.79 1.57-2.97 1.52-3.54-.03-.28-.18-.55-.47-.81-.31-.28-.61-.41-.89-.38-.39.04-.82.35-1.3.94-.33.43-.92 1.34-1.76 2.74-1.5 2.51-2.58 4.49-3.21 5.94-.97.42-1.72.7-2.23.83-1.42.33-2.21.55-2.38.65-.6.39-.88.85-.83 1.4.04.46.32.82.83 1.08.37.19.78.26 1.24.22.31-.03.75-.15 1.32-.35-1.37 3.49-2.2 5.69-2.49 6.6-1.2 3.65-1.68 6.8-1.44 9.44.11 1.2.42 2.11.94 2.72.84.96 1.81 1.38 2.92 1.28 2.09-.19 4.25-2.09 6.47-5.68 1.86-2.99 2.75-4.88 2.67-5.69-.02-.2-.12-.38-.32-.56-.21-.18-.46-.25-.75-.23-.48.04-.89.44-1.24 1.2-.65 1.34-1.4 2.68-2.27 4.04-1.36 2.19-2.58 3.34-3.67 3.44-.46.04-.81-.07-1.07-.33-.25-.26-.41-.67-.46-1.21-.18-1.92.42-4.9 1.78-8.94.96-2.87 2.05-5.45 3.26-7.79z" fill="#fff"/></svg>